Coordinates
version=1
nRows=10
nColumns=40
inDegrees=yes

Units are S.I. units (second, meters, Newtons, ...)
Angles are in degrees.

endheader
time	pelvis_tilt	pelvis_list	pelvis_rotation	pelvis_tx	pelvis_ty	pelvis_tz	hip_flexion_r	hip_adduction_r	hip_rotation_r	knee_angle_r	knee_angle_r_beta	ankle_angle_r	subtalar_angle_r	mtp_angle_r	hip_flexion_l	hip_adduction_l	hip_rotation_l	knee_angle_l	knee_angle_l_beta	ankle_angle_l	subtalar_angle_l	mtp_angle_l	lumbar_extension	lumbar_bending	lumbar_rotation	arm_flex_r	arm_add_r	arm_rot_r	elbow_flex_r	pro_sup_r	wrist_flex_r	wrist_dev_r	arm_flex_l	arm_add_l	arm_rot_l	elbow_flex_l	pro_sup_l	wrist_flex_l	wrist_dev_l
     35.16500000	     -5.85522535	     -4.37314181	     -4.68799881	      1.03592867	      0.92871258	      0.40589137	     24.75701825	     -0.53132386	    -11.76080291	      8.22925276	      8.22925276	      1.16734454	     10.07037285	      4.86690613	     10.49534553	     -7.07503873	    -12.18349191	     19.16697722	     19.16697722	     13.97518154	    -12.56918633	     -3.46674457	    -10.59481179	      4.20812148	      0.72099158	     -3.20490586	    -13.68933294	     -1.72899386	     28.54909606	     46.65008543	      0.00000000	      0.00000000	     18.61806087	    -18.38214034	      1.08181823	     51.12930852	     46.03271832	      0.00000000	      0.00000000
     35.17821429	     -5.85916808	     -4.41520258	     -4.79901776	      1.03651715	      0.92858189	      0.40821326	     24.18359176	     -0.21177518	    -12.64200994	      7.80671528	      7.80671528	      1.08254236	     11.06925259	      5.70029665	      9.83438946	     -7.20788476	    -12.30689067	     18.75821966	     18.75821966	     14.14110816	    -12.41860737	     -3.46051666	    -10.55544438	      4.33569676	      0.51607335	     -2.72022774	    -13.71965747	     -1.97590942	     29.27598268	     46.63097441	      0.00000000	      0.00000000	     18.68748465	    -18.31585837	      1.57969257	     49.88626854	     45.99197110	      0.00000000	      0.00000000
     35.19142857	     -5.93731269	     -4.48313988	     -4.86457773	      1.03726283	      0.92807859	      0.41071160	     23.94537572	      0.08476167	    -12.95372196	      8.30811143	      8.30811143	      1.03269739	     10.76534582	      5.61405233	      9.39054293	     -7.40169366	    -12.27862723	     18.62386987	     18.62386987	     14.39860616	    -12.45240310	     -3.45452264	    -10.38870690	      4.46458816	      0.58459843	     -2.37902422	    -13.77158746	     -2.03167777	     29.51453243	     46.62583257	      0.00000000	      0.00000000	     18.52032945	    -18.02096591	      1.74648999	     49.63280158	     45.97582803	      0.00000000	      0.00000000
     35.20464286	     -5.93404824	     -4.42213137	     -4.86399377	      1.03826620	      0.92748382	      0.41330546	     23.87317393	      0.16550667	    -12.81850458	      9.59122336	      9.59122336	      0.99254627	      9.67672667	      4.34169610	      8.79860112	     -7.44074955	    -12.27078070	     18.39403799	     18.39403799	     14.89407221	    -12.25192028	     -3.03380833	    -10.25051102	      4.39491433	      0.51652810	     -2.22582298	    -13.86968262	     -2.37153894	     30.48949903	     46.59467460	      0.00000000	      0.00000000	     18.59638225	    -17.93781255	      2.26953177	     48.22802520	     45.93536414	      0.00000000	      0.00000000
     35.21785714	     -5.74874948	     -4.43432385	     -4.80201545	      1.03973150	      0.92700708	      0.41587218	     23.46149420	      0.27076145	    -12.67902931	     10.86674769	     10.86674769	      1.15106794	      8.72354123	      3.39591286	      8.04576142	     -7.55678019	    -12.24888784	     18.27672035	     18.27672035	     15.35218458	    -12.15178811	     -2.78074915	    -10.24273206	      4.50464916	      0.49286748	     -1.87364634	    -13.94936106	     -2.53938132	     31.06855260	     46.57823994	      0.00000000	      0.00000000	     18.39859707	    -17.76791559	      2.51533589	     47.66456166	     45.91353579	      0.00000000	      0.00000000
     35.23107143	     -5.61842340	     -4.38926351	     -4.67647975	      1.04140472	      0.92622779	      0.41862924	     22.99216422	      0.42921123	    -11.84932969	     11.84565317	     11.84565317	      0.18075033	      6.61513953	     -0.87957436	      7.52268687	     -7.68428996	    -12.23597602	     18.56052375	     18.56052375	     16.68256977	    -11.53971629	     -0.74619917	    -10.10659392	      4.56487547	      0.92187056	     -2.46781143	    -14.11877141	     -3.33038863	     33.36162309	     46.48269106	      0.00000000	      0.00000000	     18.64716217	    -17.30463607	      3.49565703	     46.14457141	     45.86534705	      0.00000000	      0.00000000
     35.24428571	     -5.41779943	     -4.35596956	     -4.52812244	      1.04322189	      0.92550361	      0.42131003	     22.70045224	      0.44430563	    -11.43877279	     13.39558933	     13.39558933	      0.72380155	      5.55107813	     -1.64553805	      6.85301770	     -7.78049689	    -12.09998452	     18.63635582	     18.63635582	     17.18590397	    -11.48618262	     -0.48150771	    -10.03351474	      4.62816727	      0.72748546	     -2.01329272	    -14.18938703	     -3.51488463	     33.93462987	     46.46377478	      0.00000000	      0.00000000	     18.05708304	    -17.19614977	      3.69713250	     45.75798293	     45.84811712	      0.00000000	      0.00000000
     35.25750000	     -5.15128659	     -4.37735217	     -4.31865378	      1.04516270	      0.92485719	      0.42412475	     22.24147660	      0.59678362	    -10.71498122	     14.61042714	     14.61042714	      1.00693162	      3.96039532	     -3.10202301	      6.33207417	     -8.00228744	    -11.90523681	     19.18337413	     19.18337413	     18.30996968	    -11.20767058	      1.22282262	    -10.04299485	      4.75656389	      0.78677835	     -2.00266919	    -14.36974353	     -3.90891543	     35.47882505	     46.37926059	      0.00000000	      0.00000000	     17.48630106	    -16.99387299	      3.97458839	     45.49234842	     45.86260515	      0.00000000	      0.00000000
     35.27071429	     -4.80434387	     -4.45713264	     -4.07241894	      1.04713679	      0.92436644	      0.42690578	     21.75079189	      0.72402367	    -10.41228182	     15.83150775	     15.83150775	      1.79935296	      3.24925201	     -3.59416768	      5.77241192	     -8.28258177	    -11.58443273	     19.74035186	     19.74035186	     18.62426422	    -11.45556344	      1.26578940	    -10.13792255	      4.95727776	      0.77700601	     -1.45934404	    -14.57865634	     -4.01195984	     35.87116994	     46.36963013	      0.00000000	      0.00000000	     16.86608782	    -16.82122135	      4.06341404	     45.18025646	     45.84929265	      0.00000000	      0.00000000
     35.28392857	     -4.63005016	     -4.44162828	     -3.80096695	      1.04889900	      0.92362208	      0.42966524	     21.60822902	      0.80687754	     -9.78281551	     17.13505023	     17.13505023	      2.62667339	      1.92843504	     -4.08145193	      5.71158491	     -8.52097041	    -11.13131577	     20.82737324	     20.82737324	     18.96557768	    -11.90844757	      1.60219422	    -10.00044532	      5.08458757	      0.59218091	     -0.96464707	    -14.71300543	     -4.16281534	     36.69083208	     46.34035651	      0.00000000	      0.00000000	     15.95166608	    -16.68188748	      4.08688894	     44.85279746	     45.84371729	      0.00000000	      0.00000000
